<svg xmlns="http://www.w3.org/2000/svg" xmlns:xlink="http://www.w3.org/1999/xlink" width="1024" zoomAndPan="magnify" viewBox="0 0 768 767.999994" height="1024" preserveAspectRatio="xMidYMid meet" version="1.0"><defs><g/><clipPath id="8dc5944d12"><rect x="0" width="69" y="0" height="346"/></clipPath></defs><rect x="-76.8" width="921.6" fill="#ffffff" y="-76.799999" height="921.599993" fill-opacity="1"/><rect x="-76.8" width="921.6" fill="#f2eee4" y="-76.799999" height="921.599993" fill-opacity="1"/><g fill="#000000" fill-opacity="1"><g transform="translate(160.893012, 628.977668)"><g><path d="M 275.296875 -115.875 L 386.6875 -435.984375 L 336.75 -435.984375 L 336.75 -448.15625 L 434.703125 -448.15625 L 434.703125 -435.984375 L 404.625 -435.984375 L 250.328125 6.40625 L 196.546875 6.40625 L 33.296875 -435.984375 L 3.84375 -435.984375 L 3.84375 -448.15625 L 213.1875 -448.15625 L 213.1875 -435.984375 L 167.734375 -435.984375 Z M 275.296875 -115.875 "/></g></g></g><g transform="matrix(1, 0, 0, 1, 539, 362)"><g clip-path="url(#8dc5944d12)"><g fill="#b5442a" fill-opacity="1"><g transform="translate(0.243238, 271.231907)"><g><path d="M 33.671875 2.5625 C 26.242188 2.5625 20.695312 0.382812 17.03125 -3.96875 C 13.363281 -8.320312 11.53125 -13.613281 11.53125 -19.84375 C 11.53125 -26.070312 13.445312 -31.320312 17.28125 -35.59375 C 21.125 -39.863281 26.546875 -42 33.546875 -42 C 40.546875 -42 46.09375 -40.203125 50.1875 -36.609375 C 54.289062 -33.023438 56.34375 -27.648438 56.34375 -20.484375 C 56.34375 -13.316406 54.421875 -7.679688 50.578125 -3.578125 C 46.734375 0.515625 41.097656 2.5625 33.671875 2.5625 Z M 33.671875 2.5625 "/></g></g></g></g></g></svg>